<svg width="107" height="95" viewBox="0 0 107 95" fill="none" xmlns="http://www.w3.org/2000/svg">
<path d="M104.834 83.1443H93.5054C101.025 74.0077 105.167 62.5833 105.167 50.9755C105.167 22.8677 81.9889 0 53.4968 0C25.0056 0 1.82664 22.8686 1.82664 50.9755C1.82664 62.5853 5.9661 74.0097 13.4849 83.1443H2.16555C0.970168 83.1443 0 84.0329 0 85.1277V92.7777C0 93.8725 0.970168 94.7611 2.16555 94.7611H33.0799C34.2753 94.7611 35.2455 93.8725 35.2455 92.7777V84.256C35.2455 83.7839 35.0625 83.3288 34.729 82.9707L34.6088 82.8408C34.4875 82.7089 34.3468 82.5929 34.1919 82.4957C23.5526 75.7422 16.9422 63.6653 16.9422 50.9745C16.9422 30.4998 33.3409 13.8432 53.4968 13.8432C73.6516 13.8432 90.0502 30.5008 90.0502 50.9745C90.0502 63.7188 83.3987 75.8216 72.6944 82.5612C72.1064 82.9311 71.7556 83.542 71.7556 84.1945V92.7757C71.7556 93.8705 72.7258 94.7591 73.9212 94.7591H104.834C106.03 94.7591 107 93.8705 107 92.7757V85.1257C107 84.0319 106.032 83.1443 104.834 83.1443Z" fill="white"/>
</svg>
